<?xml version="1.0" encoding="utf-8"?>
<!-- Generator: Adobe Illustrator 22.1.0, SVG Export Plug-In . SVG Version: 6.00 Build 0)  -->
<svg version="1.1" id="button" xmlns="http://www.w3.org/2000/svg" xmlns:xlink="http://www.w3.org/1999/xlink" x="0px" y="0px"
	 viewBox="0 0 72.2 72.2" style="enable-background:new 0 0 72.2 72.2;" xml:space="preserve">
<style type="text/css">
	.st0{fill:#FFCB00;}
	.st1{fill:#26052E;}
</style>
<g>
	<circle class="st0" cx="36.1" cy="36.2" r="29.4"/>
	<polygon class="st1" points="36.4,50.1 20.9,31.9 16.8,31.9 36.4,54.9 56,31.9 52,31.9 	"/>
	<polygon class="st1" points="52.1,26.3 20.7,26.3 36.4,44.8 	"/>
	<path class="st1" d="M36.1,0C16.2,0,0,16.2,0,36.1c0,19.9,16.2,36.1,36.1,36.1s36.1-16.2,36.1-36.1C72.2,16.2,56.1,0,36.1,0z
		 M36.1,61.6c-14.1,0-25.5-11.4-25.5-25.5S22,10.6,36.1,10.6S61.6,22,61.6,36.1S50.2,61.6,36.1,61.6z"/>
</g>
</svg>
