<?xml version="1.0" encoding="utf-8"?>
<!-- Generator: Adobe Illustrator 22.1.0, SVG Export Plug-In . SVG Version: 6.00 Build 0)  -->
<svg version="1.1" id="button" xmlns="http://www.w3.org/2000/svg" xmlns:xlink="http://www.w3.org/1999/xlink" x="0px" y="0px"
	 viewBox="0 0 160 72.4" style="enable-background:new 0 0 160 72.4;" xml:space="preserve">
<style type="text/css">
	.st0{fill:#26052E;}
</style>
<g>
	<polygon class="st0" points="80,50.1 64.5,31.9 60.4,31.9 80,54.9 99.6,31.9 95.6,31.9 	"/>
	<path class="st0" d="M158.3,34.5c-0.8,0-1.5,0.5-1.7,1.3c-1.2,0-2.9,0-5-0.1c0-1-0.1-2-0.2-3c-0.1-1.2-0.4-2.4-0.8-3.6
		c-0.4,1.2-0.6,2.4-0.8,3.6c-0.1,1-0.2,2-0.2,3l-3.4-0.1c0-1-0.1-1.9-0.2-2.8c-0.1-1.2-0.4-2.4-0.8-3.6c-0.4,1.2-0.6,2.4-0.8,3.6
		c-0.1,0.9-0.2,1.8-0.2,2.8l-3.4-0.2c0-0.9-0.1-1.7-0.2-2.6c-0.1-1.2-0.4-2.4-0.8-3.6c-0.4,1.2-0.6,2.4-0.8,3.6
		c-0.1,0.8-0.1,1.6-0.2,2.5c-9.3-0.7-19.4-1.9-23.3-4.5l0,0C112.6,10.8,94.1-2.7,74.4,0.5C58.9,2.9,46.7,15.1,44.3,30.6l0,0
		c-4,2.6-14,3.9-23.3,4.5c0-0.8-0.1-1.6-0.2-2.5c-0.1-1.2-0.4-2.4-0.8-3.6c-0.4,1.2-0.6,2.4-0.8,3.6c-0.1,0.9-0.1,1.7-0.2,2.6
		l-3.4,0.2c0-0.9-0.1-1.8-0.2-2.8c-0.1-1.2-0.4-2.4-0.8-3.6c-0.4,1.2-0.6,2.4-0.8,3.6c-0.1,1-0.2,1.9-0.2,2.8l-3.4,0.1
		c0-1-0.1-2-0.2-3C10,31.4,9.8,30.2,9.4,29c-0.4,1.2-0.6,2.4-0.8,3.6c-0.1,1-0.2,2-0.2,3c-2.1,0-3.9,0.1-5,0.1
		c-0.3-0.9-1.2-1.4-2.2-1.2s-1.4,1.2-1.2,2.2s1.2,1.4,2.2,1.2c0.6-0.2,1-0.6,1.2-1.2c1.2,0,2.9,0.1,5.1,0.1c0,1,0.1,2,0.2,2.9
		c0.1,1.2,0.4,2.4,0.8,3.6c0.4-1.2,0.6-2.4,0.8-3.6c0.1-1,0.2-1.9,0.2-2.9l3.4,0.2c0,0.9,0.1,1.8,0.2,2.7c0.1,1.2,0.4,2.4,0.8,3.6
		c0.4-1.2,0.6-2.4,0.8-3.6c0.1-0.9,0.1-1.7,0.2-2.6l3.4,0.2c0,0.8,0.1,1.6,0.2,2.4c0.1,1.2,0.4,2.4,0.8,3.6c0.4-1.2,0.6-2.4,0.8-3.6
		c0.1-0.8,0.1-1.5,0.2-2.3c9.2,0.7,19.2,2,23.4,4.3l0,0C47.4,61.5,65.9,75,85.7,71.9c15.5-2.4,27.7-14.6,30.1-30.1l0,0
		c4.2-2.4,14.1-3.7,23.4-4.3c0,0.8,0.1,1.5,0.2,2.3c0.1,1.2,0.4,2.4,0.8,3.6c0.4-1.2,0.6-2.4,0.8-3.6c0.1-0.8,0.1-1.6,0.2-2.4
		l3.4-0.2c0,0.9,0.1,1.7,0.2,2.6c0.1,1.2,0.4,2.4,0.8,3.6c0.4-1.2,0.6-2.4,0.8-3.6c0.1-0.9,0.2-1.8,0.2-2.7l3.4-0.2
		c0,1,0.1,1.9,0.2,2.9c0.1,1.2,0.4,2.4,0.8,3.6c0.4-1.2,0.6-2.4,0.8-3.6c0.1-1,0.2-2,0.2-2.9c2.1-0.1,3.9-0.1,5.1-0.1
		c0.3,0.9,1.3,1.4,2.2,1.1s1.4-1.3,1.1-2.2C159.7,34.9,159,34.4,158.3,34.5L158.3,34.5z M80,61.8c-14.2,0-25.6-11.5-25.6-25.6
		S65.8,10.6,80,10.6s25.6,11.5,25.6,25.6v0C105.6,50.3,94.1,61.8,80,61.8z"/>
	<polygon class="st0" points="95.7,26.3 64.3,26.3 80,44.8 	"/>
</g>
</svg>
