<svg id="Layer_1" data-name="Layer 1" xmlns="http://www.w3.org/2000/svg" width="1366" height="768" viewBox="0 0 1366 768"><title>jupiter</title><g id="jupiter"><path d="M187.6,356.8c-.1-.1-.2-.1-.4-.2a9.37,9.37,0,1,0-8.9,16.5c.1.1.2.1.4.2a46.16,46.16,0,0,1,8.9-16.5Z" fill="#26052E"/><circle cx="282.8" cy="422" r="3" fill="#26052E"/><circle cx="326.8" cy="367.7" r="4.1" fill="#26052E"/><circle cx="154.9" cy="397" r="4.9" fill="#26052E"/><circle cx="205.9" cy="387.6" r="2.8" fill="#26052E"/><path d="M264.4,387.6a13.68,13.68,0,0,1,5.6-11.1,14.35,14.35,0,0,1-2.2-.4c.2.1,1.2.2,1.2.5,0,0-7.5-.8-8.2-1-2.9-.7-5.8-.5-8.9-.8a84.28,84.28,0,0,0-8.6-.5c-3-.1-6.3,0-9.2-.3-2.3-.3-4.1.2-6.4.2-.9,0-7.5-.5-7.1-1-1,.2-13.3,2.3-14.7.5h-.4a18.8,18.8,0,0,0-5.8,0,24.74,24.74,0,0,1-7.2.4,5.09,5.09,0,0,0-3.4.8c-1.2.7-1.4,1.5-2.9.7-.3-.2-.5-.6-.8-.6s-.5.4-.8.4-1.8.1-1.7-.4c.2-1,3.7-.5,4.3-1,.4-.3.2-.6.4-1.1.8-1.6.8-.1,1.8-.6.4-.2,0-.8.5-.8s.3,1.5,1.1.6c.6.4.2.5.7.5.2,0,.6-.3.8-.3a3.19,3.19,0,0,1,2.1-.4c1.4.3,1.8,1.2,3.3,1,.8-.1.9-.4,1.7-.9s1.5-.1,2-.4c.7-.3.7-1,1.6-1.1a2.38,2.38,0,0,1,1.2.3c-.6.3.5.5.6.7.4.6.1,1.1,1.1.9a7.42,7.42,0,0,1,2.5-.5c-.5-3.7,3.9-2.4,5.3-1.1.9-2.3,3.5-.1,4.5.3a4.35,4.35,0,0,0,2.2.3c.7,0,.6-.8,1.1-.9s.9.6,1.3.5a75,75,0,0,1,10.6,0c1.9.1,3.3.7,5.1.6.9-.1,1.5-.6,2.3-.4,1.1.2,1.7,1.4,2.5,1.5.6.1,1.3-.5,1.9-.5a16,16,0,0,0,2.1.5c.6,0,1.4-.3,1.9-.3.9.1,1.8.5,2.5.6a9.76,9.76,0,0,0,1.9-.1c.5.1,1.8.7,2.2.7,1,0,.9-1.1,1.9-.8s.6,1.9,1.9,1.6c-1.2-1.2,2.7-.1,2.8-.1.6.1,2.7-.6,3.1.7-.1.2-.3.2-.6.2,1.2.4,1.9-.5,2.7-.6a8.66,8.66,0,0,1,3.5.8,47.18,47.18,0,1,0-90.9,25.3,18.13,18.13,0,0,1,1.9-.3c2.1.1,3.1,1,5.1,1.4,1.6.4,3.7,0,5.3.1,1.8.2,3.4.5,5.3.8a24.2,24.2,0,0,0,5.4.2c2.4-.1,4.9.6,7.2.6a13.35,13.35,0,0,1,2,0,8.48,8.48,0,0,1,1.6,0c.4,0,.7.8,1.2.9,1,.2,4.5-.4,5.6-.4.5,0,5.2,0,8.2.3a33.19,33.19,0,0,1,4.5,0H235c-.1,0,1.3-.3,1.1-.3.7,0,.5-.2,1.3.1.4.2-.1.8.8.9.5.1,1.1-1.1,1.5-1.3a6.1,6.1,0,0,1,2.7.1c.4.1.6-.1,1,0h0c-.1,0,1.5.7,1.1.4.9.6.5,1,1.8,1.2,1.1.2,2.5-.6,3.7-.5a40.12,40.12,0,0,0,6-.2,23.15,23.15,0,0,0,4.6-.5,10.46,10.46,0,0,1,3.9-.8c.5-.5,3.4-.1,3.6.7.1.5-9,1.6-9.9,1.7-3,.4-6.2.4-9.1.9.1,0-.3.3-.5.4s-.7-.2-.9-.2c-.5,0-1.1.2-1.6.2a19.22,19.22,0,0,1-2.4,0c-1.7,0-5-1.3-5.9-.2-.4-.5-1.2.1-1.6-.1s.2-.7-.4-.9a7.57,7.57,0,0,0-1.5.1,26.73,26.73,0,0,1-4,.1.76.76,0,0,1-.4-.1,8.67,8.67,0,0,1-1,1.4c-1.2,0-1.7-1.9-2.8-2.2-.9-.2-1.1.3-1.8.3-1.7,0-6.1,2.2-7,0-1.4,2.2-5.7,0-7.2-.4-1.8-.5-2.4.1-4,.2-.8,0-1.5-.5-2.2-.4a21,21,0,0,1-7.1-.3,36.74,36.74,0,0,0-4.2-.7c-.9-.1-2-.7-2.8-.7-1.1-.1-1.4.5-2.2.6a16.65,16.65,0,0,1-2.6-.6c-.7-.1-2,.3-2.7,0a3.81,3.81,0,0,1-1.4-1.1,47.24,47.24,0,0,0,69,26,10.3,10.3,0,0,1-2.5,0h0c-.3,1-3.9.8-3.7.6-.7-.1-.3.7-.7.8a7.07,7.07,0,0,1-1.2-.2,21.5,21.5,0,0,1-2.3.2c-1.8.4-3.5.3-5.3.7a63.61,63.61,0,0,1-12.6.8c-1.2,0-2-.5-3.2-.4-.8,0-2.5,1.7-3.1.1-1.2.9-1.5.8-2.9.2,0,0-2.2-2.6-2.2-2,0-1.2,8.6.5,9.2.6,0,0,6.4-.2,7.3-.2,2,0,4-.1,6,0a49.81,49.81,0,0,0,10.8-1.3c.7-.1,5.8-.7,5.8-.9,0,.2-.6.3-.8.3.6-.2,2.3-.3,3.1-.5a47.63,47.63,0,0,0,19.7-27.3A14,14,0,0,1,264.4,387.6Zm-57.5-39.2a41.5,41.5,0,0,0,4.8-1.1,27.83,27.83,0,0,1,5.8-.4c3.2,0,8.5-1.4,11.2-1.3,1,0,2,.8,3,.7,3-.2,13.4,1.8,14.5,1.4.5-.2.5.5.8.8.1.1.6.2.6.6a9.4,9.4,0,0,1-1.2-.1,9.48,9.48,0,0,0-1.7,0,3.81,3.81,0,0,1-1-.3,9.15,9.15,0,0,1-1.7.1c-6.6-1.5-18.4-1.5-19.1-1.5-2.5.2-8.2.8-10.5,1.3-1.2.2-2.2.6-3.4.7-.7.1-3.2,0-3.6.2-2.2,1.2-3.8.8-6.2,1.5C201.6,347.9,204.1,348.7,206.9,348.4Z" fill="#26052E"/><path d="M286.3,391.3a13.63,13.63,0,0,0,1.1-1.4,3,3,0,0,1-1.3-.9,2.77,2.77,0,0,1-1.5,1.3c-.8.3-.8.1-.9,1s-.4,1-1.2,1.6a10.63,10.63,0,0,0,.9,1.1,45.43,45.43,0,0,0-5.6,4.3c.2-1,1.7-2.2,2.6-2.8s1.8-.9,2.8-1.5a17.09,17.09,0,0,0-1.4-1.1c.3-.3.7-.5,1-.8a4,4,0,0,0,.8-1.6,3.16,3.16,0,0,1-1.9-.7c-.6,1-.9,1.9-2,2.1a10.87,10.87,0,0,1-1.8.1c-.7,0-1-.1-1.4.5-.3.4-.5,1.3-.9,1.5s-.9,0-1.3,0c-1.1-.1-3.3-.1-4.4-.8a36.72,36.72,0,0,1,4.6.3c.9.1.9,0,1.5-.7.2-.2.5-.8.8-.9.9-.5,2.5,0,3.4-.5a7.68,7.68,0,0,0,1.5-1.6,7.63,7.63,0,0,0-.8-1.1c-.2-.4-.2-1.3-.3-1.3s-2.3,1.9-3.5,2c-.9.1-1.9-.3-2.9-.2-2.8.2-5.1,1.5-7.5,2.1a8.8,8.8,0,0,1,3.6-1.9,15,15,0,0,1,3.7-.4,7.47,7.47,0,0,0,3.9-.6c.4-.2.8-.4,1.3-.6a5.78,5.78,0,0,0,1.4-.5c.1-.2.1-.7.2-1a2.07,2.07,0,0,1,.6-1l-1.2-.9c-.2-.2-.5-.7-.7-.9-.6-.4-1.6,0-2.3.2-1.3.3-2.1-.3-3-1.2.6-.1,1.3.4,1.9.6a7.94,7.94,0,0,0,2.2.1c.6,0,1-.2,1.6.1a4.94,4.94,0,0,1,1.6,1.9,5.06,5.06,0,0,1,1.9-.8,5.37,5.37,0,0,1-.9-2c0-.3.2-.2.1-.5-.1-.1-.4-.3-.5-.4a6.73,6.73,0,0,0-1.1-.7c-.7-.5-.5-.5-.1-1.2s.4-1.9.7-2.5a7.41,7.41,0,0,1,.1,2.1c-.1.3-.7.9-.7,1.2.1.7,1.8,1.2,2,1.7.1.2-.1.5-.1.7a2.12,2.12,0,0,0,.3.7c.1.2.1.6.2.7.2.4.2.2.6.4a2.54,2.54,0,0,1,1.2,1.1,2.89,2.89,0,0,1,1.1,1.8v.1s.7-1,1.1-.9c.2,0,.5.3.7.5a2.46,2.46,0,0,0,1.7.1,12,12,0,1,0-.6,4.3A10.2,10.2,0,0,1,286.3,391.3Zm.9-9.1c0,.2-.8.4-1,.7s-.1.8-.3,1.3a4.18,4.18,0,0,1-.4,1,2,2,0,0,1,.5-2.3c.1-.1.6-.5.6-.7a4.17,4.17,0,0,0-.6-.8,12.9,12.9,0,0,1-.9-1.6A5.42,5.42,0,0,1,287.2,382.2Z" fill="#26052E"/><path d="M281.4,385.5c-1.8,2.5,1.9,5.6,4.2,3.6a2,2,0,0,0,.8-1.9,12.08,12.08,0,0,0-1.1-1.8C284.2,384.4,282.4,384.1,281.4,385.5Z" fill="#26052E"/><path d="M288.4,387c-.7-.5-.9-.3-1.6.2-.4.3-.2,0-.4.5a5.28,5.28,0,0,1-.3,1.2c.4.1,1.6.4,1.7.8s-.7.9-.9,1.3a5.66,5.66,0,0,1,2.6.3,11.48,11.48,0,0,0,.6-3.7v-.2A2.18,2.18,0,0,1,288.4,387Z" fill="#26052E"/></g></svg>