<svg id="Layer_1" data-name="Layer 1" xmlns="http://www.w3.org/2000/svg" width="1366" height="768" viewBox="0 0 1366 768"><title>logo</title><g id="logo"><path d="M652.4,434.9a17.4,17.4,0,1,0,17.4,17.4A17.41,17.41,0,0,0,652.4,434.9Zm0,30.8a13.4,13.4,0,1,1,13.4-13.4A13.4,13.4,0,0,1,652.4,465.7Z" fill="#26052E"/><path d="M710.8,434.9a17.4,17.4,0,1,0,17.4,17.4A17.41,17.41,0,0,0,710.8,434.9Zm0,30.8a13.4,13.4,0,1,1,13.4-13.4A13.4,13.4,0,0,1,710.8,465.7Z" fill="#26052E"/><path d="M604.2,445.6c0,11.4,1.2,20.7,11.8,20.7V425C605.4,425,604.2,434.2,604.2,445.6Z" fill="#26052E"/><path d="M759.1,445.6c0,11.4-1.2,20.7-11.8,20.7V425C757.9,425,759.1,434.2,759.1,445.6Z" fill="#26052E"/><polygon points="755.1 374 770 381.6 772.1 373.7 751 366.2 750.4 368.7 730.8 360.8 754.2 377.3 755.1 374" fill="#26052E"/><polygon points="607.5 372.2 592.6 379.8 590.4 371.9 611.5 364.4 612.2 366.9 631.7 359 608.4 375.6 607.5 372.2" fill="#26052E"/><polygon points="679.9 278.1 677.1 261.6 685.3 261.9 686.1 284.3 683.5 284.2 685.2 305.2 676.4 277.9 679.9 278.1" fill="#26052E"/><polygon points="620 313.3 606.8 303 613.1 297.7 628.8 313.6 626.7 315.3 642.2 329.7 617.3 315.5 620 313.3" fill="#26052E"/><polygon points="742.6 313.3 755.7 303 749.5 297.7 733.8 313.6 735.8 315.3 720.4 329.7 745.2 315.5 742.6 313.3" fill="#26052E"/><path d="M715.2,392.9H699.8v-.2a4.23,4.23,0,0,0-4.2-4.2h-.5a28.73,28.73,0,0,1,7.4-14.6,29.63,29.63,0,0,0-1.4-42.1,29.3,29.3,0,0,0-22.4-7.9,29.77,29.77,0,0,0-19.8,49.8,31.7,31.7,0,0,1,7.6,14.9h-.3a4.23,4.23,0,0,0-4.2,4.2v.2H647.2c-15.5,0-28.1,5.3-28.1,20.7v2.9l124.1-.3v-2.5C743.3,398.1,730.7,392.9,715.2,392.9Zm-78.6,16.7a2.4,2.4,0,1,1,2.4-2.4A2.37,2.37,0,0,1,636.6,409.6Zm40.7-21.2c-.7-13.1-2.4-20.7-3.8-24.8l1.5,1.3a1,1,0,0,0,.9.2,1.56,1.56,0,0,0,.8-.6l1.6-3.3,1.6,3.3a1.13,1.13,0,0,0,2,0l1.6-3.3,1.6,3.3a1,1,0,0,0,.8.6,1,1,0,0,0,.9-.2l1.2-1c-1.5,4.2-3.3,11.8-4.1,24.6h-6.6ZM661.8,371a25.91,25.91,0,0,1-6.8-19.9,26.2,26.2,0,0,1,24.1-23.7c.6,0,1.3-.1,1.9-.1a26.08,26.08,0,0,1,26.1,26,26,26,0,0,1-7.1,17.9,31.89,31.89,0,0,0-8.5,17.2h-5.2c1.4-22.7,6-28,6-28.1a1.1,1.1,0,0,0-1.5-1.6l-4.2,3.5-2-4a1.13,1.13,0,0,0-2,0l-1.6,3.3-1.6-3.3a1.13,1.13,0,0,0-2,0l-2,4-4.2-3.5a1.09,1.09,0,0,0-1.5.1,1.2,1.2,0,0,0-.1,1.5c0,.1,4.2,5.5,5.5,28.1h-4.7A34.52,34.52,0,0,0,661.8,371Zm-2.9,38.9a2.4,2.4,0,1,1,2.4-2.4A2.31,2.31,0,0,1,658.9,409.9Zm22.4.4a2.4,2.4,0,1,1,2.4-2.4A2.43,2.43,0,0,1,681.3,410.3Zm22.3.3a2.4,2.4,0,1,1,2.4-2.4A2.43,2.43,0,0,1,703.6,410.6Zm22.3.3a2.4,2.4,0,1,1,2.4-2.4A2.37,2.37,0,0,1,725.9,410.9Z" fill="#26052E"/><path d="M619.5,479.6c3.7.9,19.6,4.5,26.3,4.5a97.87,97.87,0,0,0,10.1-1.5c7.8-1.4,18.4-3.2,25.6-3.2s17.9,1.9,25.6,3.2a97.87,97.87,0,0,0,10.1,1.5c6.7,0,22.6-3.6,26.3-4.5V419.8l-124.1.3C619.5,420.1,619.5,466.8,619.5,479.6Zm91.3-47.4a20.1,20.1,0,1,1-20.1,20.1A20.1,20.1,0,0,1,710.8,432.2Zm-58.4,0a20.1,20.1,0,1,1-20.1,20.1A20.1,20.1,0,0,1,652.4,432.2Z" fill="#26052E"/><path d="M717.3,487.7c-1.8,0-5.5-.7-10.7-1.6-7.7-1.3-18.1-3.2-25-3.2s-17.4,1.8-25,3.2c-5.2.9-8.9,1.6-10.7,1.6-6.7,0-21.4-3.3-26.3-4.4.2,15.2,12.8,24.7,28.1,24.7h67.9c15.3,0,27.9-9.5,28.1-24.7C738.7,484.4,724,487.7,717.3,487.7Z" fill="#26052E"/></g></svg>