<?xml version="1.0" encoding="utf-8"?>
<!-- Generator: Adobe Illustrator 22.1.0, SVG Export Plug-In . SVG Version: 6.00 Build 0)  -->
<svg version="1.1" id="Layer_1" xmlns="http://www.w3.org/2000/svg" xmlns:xlink="http://www.w3.org/1999/xlink" x="0px" y="0px"
	 viewBox="0 0 181.7 246.4" style="enable-background:new 0 0 181.7 246.4;" xml:space="preserve">
<style type="text/css">
	.st0{fill:#26052E;}
</style>
<g id="logo">
	<path class="st0" d="M62,173.3c-9.6,0-17.4,7.8-17.4,17.4s7.8,17.4,17.4,17.4s17.4-7.8,17.4-17.4S71.6,173.3,62,173.3z M62,204.1
		c-7.4,0-13.4-6-13.4-13.4s6-13.4,13.4-13.4s13.4,6,13.4,13.4S69.4,204.1,62,204.1L62,204.1L62,204.1z"/>
	<path class="st0" d="M120.4,173.3c-9.6,0-17.4,7.8-17.4,17.4s7.8,17.4,17.4,17.4c9.6,0,17.4-7.8,17.4-17.4S130,173.3,120.4,173.3z
		 M120.4,204.1c-7.4,0-13.4-6-13.4-13.4s6-13.4,13.4-13.4s13.4,6,13.4,13.4S127.8,204.1,120.4,204.1L120.4,204.1L120.4,204.1z"/>
	<path class="st0" d="M13.8,184c0,11.4,1.2,20.7,11.8,20.7v-41.3C15,163.4,13.8,172.6,13.8,184z"/>
	<path class="st0" d="M168.7,184c0,11.4-1.2,20.7-11.8,20.7v-41.3C167.5,163.4,168.7,172.6,168.7,184z"/>
	<polygon class="st0" points="164.7,112.4 179.6,120 181.7,112.1 160.6,104.6 160,107.1 140.4,99.2 163.8,115.7 	"/>
	<polygon class="st0" points="17.1,110.6 2.2,118.2 0,110.3 21.1,102.8 21.8,105.3 41.3,97.4 18,114 	"/>
	<polygon class="st0" points="89.5,16.5 86.7,0 94.9,0.3 95.7,22.7 93.1,22.6 94.8,43.6 86,16.3 	"/>
	<polygon class="st0" points="29.6,51.7 16.4,41.4 22.7,36.1 38.4,52 36.3,53.7 51.8,68.1 26.9,53.9 	"/>
	<polygon class="st0" points="152.2,51.7 165.3,41.4 159.1,36.1 143.4,52 145.4,53.7 130,68.1 154.8,53.9 	"/>
	<path class="st0" d="M124.8,131.3h-15.4v-0.2c0-2.3-1.9-4.2-4.2-4.2h-0.5c1-5.5,3.6-10.6,7.4-14.6c11.2-11.9,10.7-30.6-1.2-41.9
		c-0.1-0.1-0.2-0.1-0.2-0.2c-6-5.7-14.2-8.5-22.4-7.9c-16.4,1.2-28.7,15.4-27.5,31.8c0.5,6.7,3.2,13,7.7,18
		c3.8,4.2,6.4,9.3,7.6,14.9h-0.3c-2.3,0-4.2,1.9-4.2,4.2v0.2H56.8c-15.5,0-28.1,5.3-28.1,20.7v2.9l124.1-0.3v-2.5
		C152.9,136.5,140.3,131.3,124.8,131.3z M46.2,148c-1.3,0-2.4-1.1-2.4-2.4s1.1-2.4,2.4-2.4s2.4,1.1,2.4,2.4S47.6,148,46.2,148
		L46.2,148L46.2,148z M86.9,126.8c-0.7-13.1-2.4-20.7-3.8-24.8l1.5,1.3c0.2,0.2,0.6,0.3,0.9,0.2c0.3-0.1,0.6-0.3,0.8-0.6l1.6-3.3
		l1.6,3.3c0.3,0.6,1,0.8,1.5,0.5c0.2-0.1,0.4-0.3,0.5-0.5l1.6-3.3l1.6,3.3c0.1,0.3,0.4,0.6,0.8,0.6c0.3,0.1,0.7,0,0.9-0.2l1.2-1
		c-1.5,4.2-3.3,11.8-4.1,24.6L86.9,126.8C86.9,126.9,86.9,126.8,86.9,126.8z M71.4,109.4c-5-5.4-7.4-12.6-6.8-19.9
		C65.8,76.8,76,66.8,88.7,65.8c0.6,0,1.3-0.1,1.9-0.1c14.4,0,26.1,11.6,26.1,26c0,6.7-2.5,13.1-7.1,17.9c-4.5,4.7-7.5,10.7-8.5,17.2
		h-5.2c1.4-22.7,6-28,6-28.1c0.4-0.4,0.4-1.1-0.1-1.6c-0.4-0.4-1-0.4-1.4,0l-4.2,3.5l-2-4c-0.3-0.6-1-0.8-1.5-0.5
		c-0.2,0.1-0.4,0.3-0.5,0.5l-1.6,3.3L89,96.6c-0.3-0.6-1-0.8-1.5-0.5c-0.2,0.1-0.4,0.3-0.5,0.5l-2,4l-4.2-3.5
		c-0.4-0.4-1.1-0.3-1.5,0.1c-0.4,0.4-0.4,1-0.1,1.5c0,0.1,4.2,5.5,5.5,28.1H80C78.9,120.3,75.9,114.3,71.4,109.4z M68.5,148.3
		c-1.3,0-2.4-1.1-2.4-2.4s1.1-2.4,2.4-2.4s2.4,1.1,2.4,2.4c0.1,1.3-0.9,2.3-2.2,2.4C68.6,148.3,68.6,148.3,68.5,148.3L68.5,148.3z
		 M90.9,148.7c-1.3,0-2.4-1.1-2.4-2.4s1.1-2.4,2.4-2.4s2.4,1.1,2.4,2.4C93.3,147.6,92.2,148.7,90.9,148.7z M113.2,149
		c-1.3,0-2.4-1.1-2.4-2.4s1.1-2.4,2.4-2.4c1.3,0,2.4,1.1,2.4,2.4C115.6,147.9,114.5,149,113.2,149L113.2,149z M135.5,149.3
		c-1.3,0-2.4-1.1-2.4-2.4s1.1-2.4,2.4-2.4c1.3,0,2.4,1.1,2.4,2.4C137.9,148.2,136.9,149.3,135.5,149.3L135.5,149.3L135.5,149.3z"/>
	<path class="st0" d="M29.1,218c3.7,0.9,19.6,4.5,26.3,4.5c3.4-0.3,6.8-0.8,10.1-1.5c7.8-1.4,18.4-3.2,25.6-3.2
		c7.2,0,17.9,1.9,25.6,3.2c3.3,0.7,6.7,1.2,10.1,1.5c6.7,0,22.6-3.6,26.3-4.5v-59.8L29,158.5C29.1,158.5,29.1,205.2,29.1,218z
		 M120.4,170.6c11.1,0,20.1,9,20.1,20.1s-9,20.1-20.1,20.1s-20.1-9-20.1-20.1l0,0C100.3,179.6,109.3,170.6,120.4,170.6z M62,170.6
		c11.1,0,20.1,9,20.1,20.1s-9,20.1-20.1,20.1s-20.1-9-20.1-20.1l0,0C41.9,179.6,50.9,170.6,62,170.6L62,170.6L62,170.6z"/>
	<path class="st0" d="M126.9,226.1c-1.8,0-5.5-0.7-10.7-1.6c-7.7-1.3-18.1-3.2-25-3.2s-17.4,1.8-25,3.2c-5.2,0.9-8.9,1.6-10.7,1.6
		c-6.7,0-21.4-3.3-26.3-4.4c0.2,15.2,12.8,24.7,28.1,24.7h67.9c15.3,0,27.9-9.5,28.1-24.7C148.3,222.8,133.6,226.1,126.9,226.1z"/>
</g>
</svg>
