<svg id="Layer_1" data-name="Layer 1" xmlns="http://www.w3.org/2000/svg" width="1366" height="768" viewBox="0 0 1366 768"><title>saturn</title><g id="saturn"><circle cx="1202.18" cy="322.41" r="4.5" transform="translate(-0.14 644.3) rotate(-30)" fill="#26052E"/><circle cx="1284.55" cy="249.99" r="3" transform="translate(47.11 675.78) rotate(-30)" fill="#26052E"/><circle cx="1179.5" cy="417.1" r="2.9" fill="#26052E"/><circle cx="1161.76" cy="454.27" r="2.5" transform="translate(-71.49 641.76) rotate(-30)" fill="#26052E"/><path d="M1167.3,377.6c.9-.6,1.4-.7,2.2-1.3,1.6-1.1,2.7-2.6,4.2-3.9a35,35,0,0,1,4.3-3.3c1.5-1,2.7-1.3,4.1-2.2.8-.5,1.3-1.2,2-1.7a21.69,21.69,0,0,1,3.3-1.9c2.2-1.2,4.1-2.5,6.4-3.6,1.8-.9,4.6-2.1,5.6-3.4a.35.35,0,0,0,.1.2c.1.2,12.2-4.8,12.7-5.1l2.4-.9c-.8-.3-1.6-.5-2.5-.8a31,31,0,0,0-5.3-1,37.77,37.77,0,0,0-13.4.8,41.1,41.1,0,0,0-12.5,5.5,36.91,36.91,0,0,0-9.7,9.6,38.13,38.13,0,0,0-5.7,12.5c-.2.8-.3,1.5-.5,2.3C1165.8,378.7,1166.6,378.1,1167.3,377.6Z" fill="#26052E"/><path d="M1324.9,313.8h-.1a19.17,19.17,0,0,0-3.2.9l-.2.1c-1.1.4-2.2.8-3.5,1.4-2,.8-4.2,1.8-6.8,3-3.9,1.8-8.1,3.9-13.6,6.6-4.1,2-8.5,4.3-13.5,6.9-4.3,2.2-8.7,4.6-13.4,7.1-4.3,2.3-8.8,4.7-13.4,7.2-4.3,2.4-8.8,4.8-13.3,7.3-2.2,1.2-4.4,2.4-6.6,3.7l-5.6,3.1a.1.1,0,0,0-.1.1c-.2.1-.4.3-.6.2a1.18,1.18,0,0,1-.5-.5.1.1,0,0,0-.1-.1l-.6-.6-1.2-1.2c-.4-.4-.8-.7-1.1-1-3.9,1.6-7.9,3.5-11.5,5.4-2,1.1-4,1.8-5.9,3-2.6,1.6-1.5.6-4,1.5-1.3.5-1.8,1.3-2.8,1.9a38.24,38.24,0,0,1-3.6,1.7c-1.6.9-3,2-4.7,2.9a50,50,0,0,0-5.5,3.3,36.58,36.58,0,0,1-4.2,2.6c-1.7.9-1.8.6-3.3,2.1a9.72,9.72,0,0,1-2.5,1.9c-2.5,1.6-5,3.2-7.4,4.9-1.3,1-2.5,2.1-3.9,3-.5.3-1.2.6-1.6.9a9,9,0,0,0-1.1,1c.2,1,.5,2,.7,3,.1.3.1.5.2.8a.31.31,0,0,0,.1.2,2.54,2.54,0,0,1,.2.7,1.83,1.83,0,0,1-.8.6c-.1,0-.1.1-.2.1-1.1.6-2.1,1.3-3.2,1.9-4.4,2.6-8.8,5.3-13,7.8-4.5,2.7-8.8,5.4-13,7.9-4.6,2.8-8.8,5.4-12.9,8-4.6,2.9-8.8,5.5-12.8,8.1-4.7,3-8.8,5.7-12.7,8.3-3.4,2.3-7.9,5.3-12.3,8.6q-2.85,2.1-5.7,4.5a6.78,6.78,0,0,0-1.2,1.2c0,.1-.1.1-.2.2a2.65,2.65,0,0,0-.5.6h.3c.5-.1,1-.2,1.6-.3a63.09,63.09,0,0,0,6.8-2.6c2.2-.9,4.4-1.9,6.9-3.1,4-1.9,8.4-4,13.6-6.6,4.1-2.1,8.5-4.3,13.5-6.9,4.3-2.2,8.6-4.5,13.4-7.1,4.3-2.3,8.9-4.8,13.4-7.2,4.3-2.4,8.8-4.8,13.3-7.3l13.3-7.4c4.4-2.5,8.8-5,13.3-7.5s8.8-5,13.2-7.6,8.8-5.1,13.2-7.6,8.9-5.2,13.1-7.7c4.4-2.6,8.8-5.2,13.1-7.8s8.8-5.3,13-7.8c4.5-2.7,8.9-5.4,13-7.9,4.4-2.7,8.8-5.4,12.9-8,4.5-2.8,8.7-5.5,12.8-8.1,4.8-3.1,8.9-5.8,12.7-8.3s8.1-5.4,12.4-8.6c2.1-1.6,3.9-2.9,5.6-4.4l.1-.1a23.91,23.91,0,0,0,2.3-2.2l.1-.1c.1-.1.3-.3.3-.4A.78.78,0,0,0,1324.9,313.8Zm-30.4,18.7h0a5.46,5.46,0,0,1-1.8,1.9l-.2.2a30.14,30.14,0,0,1-2.8,2.2c-1.9,1.4-3.8,2.8-5.7,4-4,2.8-8.2,5.4-11.6,7.7-7.1,4.5-14.7,9.3-23.8,14.9-7.7,4.7-15.5,9.4-24,14.4-7.9,4.6-16,9.4-24.2,14.1s-16.5,9.5-24.4,13.9c-8.9,5-17,9.4-24.8,13.6-6.8,3.6-15.7,8.4-24.8,12.9l-.3.1c-4,2-8.1,4-12.3,5.7l-.3.1a22.94,22.94,0,0,1-2.8.9h-.1a2.88,2.88,0,0,1-1.3.1h-.1a.82.82,0,0,1-.5-.5,1,1,0,0,1,.1-.9c.2-.3.5-.6.7-.9l.1-.1c.4-.4.8-.7,1.3-1.2l2.7-2.1c3.7-2.7,7.5-5.3,11.5-7.9,3.5-2.3,7.3-4.7,11.8-7.6,7.2-4.5,15-9.3,23.9-14.7,2-1.2,3.9-2.4,5.9-3.5l.3-.2.1.3a30.49,30.49,0,0,0,1.9,4.1c.4.7.7,1.3,1.1,2a.52.52,0,0,1,.2.4c.1.2.2.3.3.5a.1.1,0,0,0,.1.1.35.35,0,0,1,.1.2h.1l.1-.1,3.6-2c1.4-.8,2.7-1.5,4.1-2.3l16.3-9.2,16.2-9.3c5.5-3.2,10.9-6.4,16.1-9.5,2.7-1.6,5.3-3.2,8-4.8l.3-.2.6-.3a28274.74,28274.74,0,0,0,.2-.2l-.1-.1-.1-.1c-.1-.2-.2-.3-.3-.5s-.1-.3-.2-.4a32.2,32.2,0,0,0-2.5-3.9c-.4-.6-.9-1.2-1.3-1.8l-.2-.2.3-.1c8.9-5,17-9.4,24.8-13.5s16.4-8.7,25-12.8c2.5-1.2,4.8-2.3,7.1-3.2l.2-.1a30.27,30.27,0,0,1,3.2-1.2,3.45,3.45,0,0,1,1.7-.2c.3,0,.5.2.7.5A1.51,1.51,0,0,1,1294.5,332.5Z" fill="#26052E"/><path d="M1168.7,391c2-1.5,4.5-3.7,6.5-5,1-.7,1.7-.7,2.7-1.5s1.6-1.7,2.9-2.6a26.06,26.06,0,0,0,3-2c1.7-1.2,2.1-1,3.9-1.9,1.3-.6,1.4-1.1,2.4-1.8a19.23,19.23,0,0,1,2.8-1.8c3.1-1.7,6-3.8,8.8-5a15.68,15.68,0,0,0,2.9-1.5,13.44,13.44,0,0,1,2.4-1.2c2.8-1.3,5.7-3,8.6-4.2,3-1.4,6-2.7,8.9-4.2a18.65,18.65,0,0,1,2-1,5.54,5.54,0,0,0-.8-.6,44.52,44.52,0,0,0-5.8-3.8,36.23,36.23,0,0,0-4.5-2l-1,.3c-4.7,1.5-9.1,4.1-13.7,5.8-2.2.8-3.4,1.9-5.5,2.9-1,.5-2,.7-3,1.2-1.4.7-2.7,1.8-4,2.6-2,1.3-4.1,2.5-6.1,3.8a49.27,49.27,0,0,0-6.3,4.2c-3.1,2.9-6.8,5.1-10.1,8-.3.3-.6.5-.9.8a36.57,36.57,0,0,0-.2,9.9,25.1,25.1,0,0,0,.4,2.7C1166.6,392.3,1168.2,391.3,1168.7,391Z" fill="#26052E"/><path d="M1179.5,413a2.93,2.93,0,0,1,1.6.4c1.4-.6,2.9-1.3,4.3-1.9a21.4,21.4,0,0,1,2.2-1c.7-.2,1.2-.1,2.1-.4a36.68,36.68,0,0,0,5.7-3.6c2.5-1.6,4.6-2.1,7.2-3.2,1.7-.7,1.2-.8,2.6-1.8s4.1-2.1,5.7-3,3.3-1.9,4.9-3c1.2-.7,2.7-2,3.8-2.6a18.28,18.28,0,0,0,2.6-1.1c.7-.4,1.2-1,1.9-1.5,1.4-1,3-2,4.4-2.9,2.8-1.8,5.7-3.8,8.3-5.8.8-.6,1.4-1.4,2.1-1.9a2.09,2.09,0,0,1,.6-.4,37.18,37.18,0,0,0-1.9-6.5c-10.5,6.2-21.3,12.6-32.3,18.9s-22,12.6-32.5,18.5a38.79,38.79,0,0,0,3.9,4.2A3.24,3.24,0,0,1,1179.5,413Z" fill="#26052E"/><path d="M1192,420.8a19.21,19.21,0,0,1,2.7-1.1c1-.3.9.2,2-.3a18.26,18.26,0,0,0,1.6-1.3c.6-.4,2-.9,2.8-1.3,2.5-1.2,4.6-1.7,7-2.8a27.85,27.85,0,0,0,3.1-2c1.2-.7,2.5-1.3,3.7-1.9a33.72,33.72,0,0,0,3.2-1.9c1.1-.7,1.9-1.6,2.9-2.2.8-.5.9-.3,1.7-.7a6,6,0,0,0,2.7-2.2h0c.1-.1.2-.3.3-.4-.1.1-.2.3-.3.4.4-.5,1.8-.7,2.3-1a19.86,19.86,0,0,0,2.7-2.2c2.6-2,5.3-3.6,7.7-5.7a18.48,18.48,0,0,0,1.4-1.4,38,38,0,0,0,.1-12.6,34.74,34.74,0,0,1-4,3c-1.4.9-2,.8-3.4,2a1,1,0,0,1-.1.4c-.4.4-1.1.9-1.6,1.3-1.8,1.4-4,2.8-5.9,4-1.2.7-2.3,1.1-3.5,1.7-1.6.9-2.8,2.5-4.5,3.5-1.5.9-2.6,1-4.1,2a113.74,113.74,0,0,1-10.2,6,46.37,46.37,0,0,0-5.5,2.6c-1.7,1-1.6,1.3-3.3,2a12.44,12.44,0,0,0-1.6.4c-.8.3-1.1.8-1.8,1.2-1.7.9-3.6,1.5-5.3,2.3a30.21,30.21,0,0,1-2.9,1.2,4,4,0,0,1,1.7,3.3,4.14,4.14,0,0,1-.5,1.9,48.5,48.5,0,0,0,6.1,2.9C1190.2,421.5,1191.2,421.1,1192,420.8Z" fill="#26052E"/><path d="M1238.5,394.4c-1.5,1.1-3.6,3.4-5.2,4.7-.9.7-1.9,1.5-2.9,2.2-1.4.9-2.7,1.4-4.1,2.3-1,.7-1.7,1.5-2.7,2.2s-2.2,1.1-3.3,1.8c-2,1.2-3.6,2.5-5.8,3.6a24.44,24.44,0,0,0-2.4,1c-1.2.7-1.7,1.5-3.2,2.2-2.4,1.2-4.8,1.6-7.1,3.1a22.74,22.74,0,0,1-5.2,2.4c-2.2.8-4.3,1.4-6.5,2.2a37.65,37.65,0,0,0,49.2-28.3A8.13,8.13,0,0,1,1238.5,394.4Z" fill="#26052E"/></g></svg>