<svg id="Layer_1" data-name="Layer 1" xmlns="http://www.w3.org/2000/svg" width="1366" height="768" viewBox="0 0 1366 768"><title>stars02</title><g id="stars2"><path d="M1041.7,273.9c-.8-.8-4.5-1.2-4.5-1.2s3.6-.4,4.5-1.2,1.2-4.5,1.2-4.5.4,3.6,1.2,4.5,4.5,1.2,4.5,1.2-3.6.4-4.5,1.2-1.2,4.5-1.2,4.5S1042.5,274.8,1041.7,273.9Z" fill="#26052E"/><path d="M900.4,131c-.6-.6-3.4-.9-3.4-.9s2.8-.3,3.4-.9.9-3.4.9-3.4.3,2.8.9,3.4,3.4.9,3.4.9-2.8.3-3.4.9-.9,3.4-.9,3.4S901,131.6,900.4,131Z" fill="#26052E"/><path d="M649.3,141.9c-.7-.7-4.1-1.1-4.1-1.1s3.3-.4,4.1-1.1,1.1-4.1,1.1-4.1.4,3.3,1.1,4.1,4.1,1.1,4.1,1.1-3.3.4-4.1,1.1-1.1,4.1-1.1,4.1S650.1,142.6,649.3,141.9Z" fill="#26052E"/><path d="M430.8,272.9c-.7-.7-3.7-1-3.7-1s3.1-.3,3.7-1,1-3.7,1-3.7.3,3.1,1,3.7,3.7,1,3.7,1-3.1.3-3.7,1-1,3.7-1,3.7S431.5,273.6,430.8,272.9Z" fill="#26052E"/><path d="M536.9,602.2c-1-1-5.6-1.5-5.6-1.5s4.5-.5,5.6-1.5,1.5-5.6,1.5-5.6.5,4.5,1.5,5.6,5.6,1.5,5.6,1.5-4.5.5-5.6,1.5-1.5,5.6-1.5,5.6S537.9,603.2,536.9,602.2Z" fill="#26052E"/><path d="M926.4,269.3c-1.7-1.7-9.1-2.4-9.1-2.4s7.4-.8,9.1-2.4,2.4-9.1,2.4-9.1.8,7.4,2.4,9.1,9.1,2.4,9.1,2.4-7.4.8-9.1,2.4-2.4,9.1-2.4,9.1S928,271,926.4,269.3Z" fill="#26052E"/><path d="M1123.3,241c-1.7-1.7-9.4-2.5-9.4-2.5s7.7-.8,9.4-2.5,2.5-9.4,2.5-9.4.8,7.7,2.5,9.4,9.4,2.5,9.4,2.5-7.7.8-9.4,2.5-2.5,9.4-2.5,9.4S1125,242.7,1123.3,241Z" fill="#26052E"/><path d="M1105.1,496.1c-1-1-5.5-1.5-5.5-1.5s4.5-.5,5.5-1.5,1.5-5.5,1.5-5.5.5,4.5,1.5,5.5,5.5,1.5,5.5,1.5-4.5.5-5.5,1.5-1.5,5.5-1.5,5.5S1106.1,497.1,1105.1,496.1Z" fill="#26052E"/><path d="M479.2,568.2c-1.1-1.1-5.7-1.5-5.7-1.5s4.7-.5,5.7-1.5,1.5-5.7,1.5-5.7.5,4.7,1.5,5.7,5.7,1.5,5.7,1.5-4.7.5-5.7,1.5-1.5,5.7-1.5,5.7S480.2,569.3,479.2,568.2Z" fill="#26052E"/><path d="M762.2,578.1c-.8-.8-4.1-1.1-4.1-1.1s3.4-.4,4.1-1.1,1.1-4.1,1.1-4.1.4,3.4,1.1,4.1,4.1,1.1,4.1,1.1-3.4.4-4.1,1.1-1.1,4.1-1.1,4.1S763,578.8,762.2,578.1Z" fill="#26052E"/><path d="M880,610.4c-1.3-1.3-7.1-1.9-7.1-1.9s5.8-.6,7.1-1.9,1.9-7.1,1.9-7.1.6,5.8,1.9,7.1,7.1,1.9,7.1,1.9-5.8.6-7.1,1.9-1.9,7.1-1.9,7.1S881.4,611.7,880,610.4Z" fill="#26052E"/><path d="M1058.9,572.8c-1.3-1.3-6.9-1.9-6.9-1.9s5.7-.6,6.9-1.9,1.9-6.9,1.9-6.9.6,5.7,1.9,6.9,6.9,1.9,6.9,1.9-5.7.6-6.9,1.9-1.9,6.9-1.9,6.9S1060.2,574.1,1058.9,572.8Z" fill="#26052E"/><path d="M833.8,154.7c-1.1-1.1-5.7-1.5-5.7-1.5s4.7-.5,5.7-1.5,1.5-5.7,1.5-5.7.5,4.7,1.5,5.7,5.7,1.5,5.7,1.5-4.7.5-5.7,1.5-1.5,5.7-1.5,5.7S834.8,155.8,833.8,154.7Z" fill="#26052E"/><path d="M573.7,209.9c-.9-.9-5.2-1.4-5.2-1.4s4.2-.4,5.2-1.4,1.4-5.2,1.4-5.2.4,4.2,1.4,5.2,5.2,1.4,5.2,1.4-4.2.4-5.2,1.4-1.4,5.2-1.4,5.2S574.7,210.8,573.7,209.9Z" fill="#26052E"/><path d="M435.3,285.9c-1.2-1.2-6.4-1.7-6.4-1.7s5.2-.6,6.4-1.7,1.7-6.4,1.7-6.4.6,5.2,1.7,6.4,6.4,1.7,6.4,1.7-5.2.6-6.4,1.7-1.7,6.4-1.7,6.4S436.5,287.1,435.3,285.9Z" fill="#26052E"/><path d="M289,476.7c-1.7-1.7-9.4-2.5-9.4-2.5s7.7-.8,9.4-2.5,2.5-9.4,2.5-9.4.8,7.7,2.5,9.4,9.4,2.5,9.4,2.5-7.7.8-9.4,2.5-2.5,9.4-2.5,9.4S290.7,478.4,289,476.7Z" fill="#26052E"/><path d="M352.9,584.1c-1.7-1.7-9.4-2.5-9.4-2.5s7.7-.8,9.4-2.5,2.5-9.4,2.5-9.4.8,7.7,2.5,9.4,9.4,2.5,9.4,2.5-7.7.8-9.4,2.5-2.5,9.4-2.5,9.4S354.6,585.8,352.9,584.1Z" fill="#26052E"/></g></svg>