<svg id="Layer_1" data-name="Layer 1" xmlns="http://www.w3.org/2000/svg" width="1366" height="768" viewBox="0 0 1366 768"><title>stars01</title><g id="stars1"><path d="M426.7,501.1c2.2,2.2,12.4,2,12.4,2s-10.2-.2-12.4,2-2,12.4-2,12.4.2-10.2-2-12.4-12.4-2-12.4-2,10.2.2,12.4-2,2-12.4,2-12.4S424.4,498.8,426.7,501.1Z" fill="#26052E"/><path d="M1292,294.3c-2.6-2.6-14.4-2.4-14.4-2.4s11.8.2,14.4-2.4,2.4-14.4,2.4-14.4-.2,11.8,2.4,14.4,14.4,2.4,14.4,2.4-11.8-.2-14.4,2.4-2.4,14.4-2.4,14.4S1294.6,296.8,1292,294.3Z" fill="#26052E"/><path d="M1305.5,272.9c.7.7,3.7,1,3.7,1s-3.1.3-3.7,1-1,3.7-1,3.7-.3-3.1-1-3.7-3.7-1-3.7-1,3.1-.3,3.7-1,1-3.7,1-3.7S1304.8,272.3,1305.5,272.9Z" fill="#26052E"/><path d="M1029.1,353.9c1.2,1.2,6.4,1.7,6.4,1.7s-5.2.6-6.4,1.7-1.7,6.4-1.7,6.4-.6-5.2-1.7-6.4-6.4-1.7-6.4-1.7,5.2-.6,6.4-1.7,1.7-6.4,1.7-6.4S1027.9,352.8,1029.1,353.9Z" fill="#26052E"/><g id="stars1.png"><path d="M325,343.7c1.4,1.4,7.6,1.2,7.6,1.2s-6.2-.1-7.6,1.2-1.2,7.6-1.2,7.6.1-6.2-1.2-7.6-7.6-1.2-7.6-1.2,6.2.1,7.6-1.2,1.2-7.6,1.2-7.6S323.6,342.3,325,343.7Z" fill="#26052E"/><path d="M937.1,496.7c1.4,1.4,7.6,1.2,7.6,1.2s-6.2-.1-7.6,1.2-1.2,7.6-1.2,7.6.1-6.2-1.2-7.6-7.6-1.2-7.6-1.2,6.2.1,7.6-1.2,1.2-7.6,1.2-7.6S935.8,495.4,937.1,496.7Z" fill="#26052E"/><path d="M164.3,286.2c2.2,2.2,12.2,2,12.2,2s-10-.2-12.2,2-2,12.2-2,12.2.2-10-2-12.2-12.2-2-12.2-2,10,.2,12.2-2,2-12.2,2-12.2S162.1,284,164.3,286.2Z" fill="#26052E"/><path d="M96.9,349.5c1.2,1.2,7,1.1,7,1.1s-5.7-.1-7,1.1-1.1,7-1.1,7,.1-5.7-1.1-7-7-1.1-7-1.1,5.7.1,7-1.1,1.1-7,1.1-7S95.7,348.2,96.9,349.5Z" fill="#26052E"/><path d="M70.8,398.3c1,1,5.7.9,5.7.9s-4.7-.1-5.7.9-.9,5.7-.9,5.7.1-4.7-.9-5.7-5.7-.9-5.7-.9,4.7.1,5.7-.9.9-5.7.9-5.7S69.8,397.3,70.8,398.3Z" fill="#26052E"/><path d="M1195.2,291.5c3,3,16.9,2.8,16.9,2.8s-13.9-.2-16.9,2.8-2.8,16.9-2.8,16.9.2-13.9-2.8-16.9-16.9-2.8-16.9-2.8,13.9.2,16.9-2.8,2.8-16.9,2.8-16.9S1192.1,288.5,1195.2,291.5Z" fill="#26052E"/><path d="M939.9,334.1c.9.9,5.2.9,5.2.9s-4.3-.1-5.2.9-.9,5.2-.9,5.2.1-4.3-.9-5.2-5.2-.9-5.2-.9,4.3.1,5.2-.9.9-5.2.9-5.2S939,333.2,939.9,334.1Z" fill="#26052E"/><path d="M1078.7,420.1c2.2,2.2,12.4,2,12.4,2s-10.2-.2-12.4,2-2,12.4-2,12.4.2-10.2-2-12.4-12.4-2-12.4-2,10.2.2,12.4-2,2-12.4,2-12.4S1076.4,417.8,1078.7,420.1Z" fill="#26052E"/><path d="M1043.7,334.1c2.2,2.2,12.4,2,12.4,2s-10.2-.2-12.4,2-2,12.4-2,12.4.2-10.2-2-12.4-12.4-2-12.4-2,10.2.2,12.4-2,2-12.4,2-12.4S1041.4,331.8,1043.7,334.1Z" fill="#26052E"/><path d="M371.9,455.6c2.9,2.9,16.2,2.7,16.2,2.7s-13.3-.2-16.2,2.7-2.7,16.2-2.7,16.2.2-13.3-2.7-16.2-16.2-2.7-16.2-2.7,13.3.2,16.2-2.7,2.7-16.2,2.7-16.2S369,452.7,371.9,455.6Z" fill="#26052E"/><path d="M407.3,212.5c3.1,3.1,17.4,2.9,17.4,2.9s-14.3-.3-17.4,2.9-2.9,17.4-2.9,17.4.3-14.3-2.9-17.4-17.4-2.9-17.4-2.9,14.3.3,17.4-2.9,2.9-17.4,2.9-17.4S404.2,209.3,407.3,212.5Z" fill="#26052E"/><path d="M343.1,235.3c1.5,1.5,8.1,1.3,8.1,1.3s-6.7-.1-8.1,1.3-1.3,8.1-1.3,8.1.1-6.7-1.3-8.1-8.1-1.3-8.1-1.3,6.7.1,8.1-1.3,1.3-8.1,1.3-8.1S341.6,233.8,343.1,235.3Z" fill="#26052E"/><path d="M144.3,377.9c1.4,1.4,7.9,1.3,7.9,1.3s-6.4-.1-7.9,1.3-1.3,7.9-1.3,7.9.1-6.4-1.3-7.9-7.9-1.3-7.9-1.3,6.4.1,7.9-1.3S143,370,143,370,142.8,376.5,144.3,377.9Z" fill="#26052E"/><path d="M1142.1,507c.9.9,5.2.9,5.2.9s-4.3-.1-5.2.9-.9,5.2-.9,5.2.1-4.3-.9-5.2-5.2-.9-5.2-.9,4.3.1,5.2-.9.9-5.2.9-5.2S1141.1,506.1,1142.1,507Z" fill="#26052E"/><path d="M1065.9,475.4c1.9,1.9,10.6,1.7,10.6,1.7s-8.7-.2-10.6,1.7-1.7,10.6-1.7,10.6.2-8.7-1.7-10.6-10.6-1.7-10.6-1.7,8.7.2,10.6-1.7,1.7-10.6,1.7-10.6S1064,473.5,1065.9,475.4Z" fill="#26052E"/><path d="M1124.9,510.4c1.9,1.9,10.6,1.7,10.6,1.7s-8.7-.2-10.6,1.7-1.7,10.6-1.7,10.6.2-8.7-1.7-10.6-10.6-1.7-10.6-1.7,8.7.2,10.6-1.7,1.7-10.6,1.7-10.6S1123,508.5,1124.9,510.4Z" fill="#26052E"/><path d="M1254.6,424.9c2,2,11.2,1.9,11.2,1.9s-9.2-.2-11.2,1.9-1.9,11.2-1.9,11.2.2-9.2-1.9-11.2-11.2-1.9-11.2-1.9,9.2.2,11.2-1.9,1.9-11.2,1.9-11.2S1252.5,422.8,1254.6,424.9Z" fill="#26052E"/><path d="M402.3,292.6c2.6,2.6,14.4,2.4,14.4,2.4s-11.8-.2-14.4,2.4-2.4,14.4-2.4,14.4.2-11.8-2.4-14.4-14.4-2.4-14.4-2.4,11.8.2,14.4-2.4,2.4-14.4,2.4-14.4S399.7,290,402.3,292.6Z" fill="#26052E"/><path d="M283.6,358.4c1.4,1.4,8,1.3,8,1.3s-6.6-.1-8,1.3-1.3,8-1.3,8,.1-6.6-1.3-8-8-1.3-8-1.3,6.6.1,8-1.3,1.3-8,1.3-8S282.1,356.9,283.6,358.4Z" fill="#26052E"/><path d="M1014.6,321.4c1.4,1.4,8,1.3,8,1.3s-6.6-.1-8,1.3-1.3,8-1.3,8,.1-6.6-1.3-8-8-1.3-8-1.3,6.6.1,8-1.3,1.3-8,1.3-8S1013.1,319.9,1014.6,321.4Z" fill="#26052E"/><path d="M997.6,523.6c1.1,1.1,6.1,1,6.1,1s-5-.1-6.1,1-1,6.1-1,6.1.1-5-1-6.1-6.1-1-6.1-1,5,.1,6.1-1,1-6.1,1-6.1S996.5,522.5,997.6,523.6Z" fill="#26052E"/></g><path d="M391,549.6c.7.7,3.7,1,3.7,1s-3.1.3-3.7,1-1,3.7-1,3.7-.3-3.1-1-3.7-3.7-1-3.7-1,3.1-.3,3.7-1,1-3.7,1-3.7S390.3,548.9,391,549.6Z" fill="#26052E"/><path d="M408.5,535.6c1.2,1.2,6.4,1.7,6.4,1.7s-5.2.6-6.4,1.7-1.7,6.4-1.7,6.4-.6-5.2-1.7-6.4-6.4-1.7-6.4-1.7,5.2-.6,6.4-1.7,1.7-6.4,1.7-6.4S407.4,534.4,408.5,535.6Z" fill="#26052E"/></g></svg>